<?xml version="1.0" encoding="utf-8"?>
<!-- Generator: Adobe Illustrator 26.0.0, SVG Export Plug-In . SVG Version: 6.00 Build 0)  -->
<svg version="1.1" id="Layer_1" xmlns="http://www.w3.org/2000/svg" xmlns:xlink="http://www.w3.org/1999/xlink" x="0px" y="0px"
	 viewBox="0 0 1093 858" style="enable-background:new 0 0 1093 858;" xml:space="preserve">
<style type="text/css">
	.st0{fill:#F5F5F5;}
	.st1{fill:#F00000;}
</style>
<symbol  id="All" viewBox="-111 -180 222 360">
	<path id="sA1_00000060737577777977590140000005359712100309773503_" class="st0" d="M-81,180l-10-10l30-30h55v30l-10,10H-81z"/>
	<path id="sA2_00000182510476154367722460000016536543592064757654_" class="st0" d="M4,140h55l30,30l-10,10H14L4,170V140z"/>
	<path id="sB_00000071562058257438689450000006972265688013182121_" class="st0" d="M69,130l30,30l10-10V30L99,10L69,30V130z"/>
	<path id="sC_00000096752097995830805860000011426471809403429288_" class="st0" d="M69-30l30,20l10-20v-120l-10-10l-30,30V-30z"/>
	<path id="sD1_00000175303604684250512350000010499134586633568402_" class="st0" d="M-61-140h55v-30l-10-10h-65l-10,10L-61-140z"/>
	<path id="sD2_00000165220644573457954740000007478599077222591120_" class="st0" d="M4-140h55l30-30l-10-10H14L4-170V-140z"/>
	<path id="sE_00000060015494398807112840000004963078269474749884_" class="st0" d="M-101-160l-10,10v120l10,20l30-20v-100L-101-160
		z"/>
	<path id="sF_00000139287598200755708430000014214823454328049284_" class="st0" d="M-101,10l-10,20v120l10,10l30-30V30L-101,10z"/>
	<path id="sG1_00000047746847143583653110000015081710450843557302_" class="st0" d="M-101,0l40,20h55v-40h-55L-101,0z"/>
	<path id="sG2_00000067227304092948671660000005741588248741480380_" class="st0" d="M99,0L59-20H4v40h55L99,0z"/>
	<path id="sH_00000087380556535023372080000011261166505716617607_" class="st0" d="M-61,130h15l15-30l20-70h-15l-35,50V130z"/>
	<path id="sI_00000071549509016862561020000014230785356951517072_" class="st0" d="M14,130v-30L-1,30l-15,70v30H14z"/>
	<path id="sJ_00000046317884880428127250000012479478479597491390_" class="st0" d="M29,100l15,30h15V80L24,30H9L29,100z"/>
	<path id="sK_00000172412761520092401430000012043925512595534722_" class="st0" d="M-26-30h15l-20-70l-15-30h-15v50L-26-30z"/>
	<path id="sL_00000150822089005487450400000010749147673165738381_" class="st0" d="M-1-30l15-70v-30h-30v30L-1-30z"/>
	<path id="sM_00000054986580436672924170000017482283830110606773_" class="st0" d="M9-30h15l35-50v-50H44l-15,30L9-30z"/>
	<circle id="sDP_00000107561484335406956640000017123649737968131715_" class="st0" cx="104" cy="-170" r="7"/>
</symbol>
<symbol  id="U0030" viewBox="-110 -180 220 360">
	<path id="sA1-16_00000052087698331533371330000004290324717033614505_" class="st1" d="M-80,180l-10-10l30-30h55v30l-10,10H-80z"/>
	<path id="sA2-16_00000105413187971994018650000011766658581223779774_" class="st1" d="M5,140h55l30,30l-10,10H15L5,170V140z"/>
	<path id="sB-15_00000092455467734654576940000002978262018568985257_" class="st1" d="M70,130l30,30l10-10V30l-10-20L70,30V130z"/>
	<path id="sC-11_00000179605217395754676110000006275692262689623697_" class="st1" d="M70-30l30,20l10-20v-120l-10-10l-30,30V-30z"
		/>
	<path id="sD1-14_00000015337564541483742460000003548179621199191210_" class="st1" d="M-60-140h55v-30l-10-10h-65l-10,10L-60-140z
		"/>
	<path id="sD2-14_00000136390199128330387400000005179505339474757267_" class="st1" d="M5-140h55l30-30l-10-10H15L5-170V-140z"/>
	<path id="sE-15_00000125563284476926416700000003503697071008456380_" class="st1" d="M-100-160l-10,10v120l10,20l30-20v-100
		L-100-160z"/>
	<path id="sF-12_00000170979487200315974470000017177863071013295748_" class="st1" d="M-100,10l-10,20v120l10,10l30-30V30L-100,10z
		"/>
	<path id="sJ-9_00000150803993827392537300000015681766398532604828_" class="st1" d="M30,100l15,30h15V80L25,30H10L30,100z"/>
	<path id="sK-9_00000106122160381259601240000015717811551179446199_" class="st1" d="M-25-30h15l-20-70l-15-30h-15v50L-25-30z"/>
</symbol>
<symbol  id="U0032" viewBox="-110 -180 220 360">
	<path id="sA1-13_00000054978487096612572690000015265469696201766295_" class="st1" d="M-80,180l-10-10l30-30h55v30l-10,10H-80z"/>
	<path id="sA2-13_00000068675380411822203260000001413166737223825077_" class="st1" d="M5,140h55l30,30l-10,10H15L5,170V140z"/>
	<path id="sB-12_00000101806330392836239710000013708252266696891782_" class="st1" d="M70,130l30,30l10-10V30l-10-20L70,30V130z"/>
	<path id="sD1-11_00000089562596915365548080000008112728158791002022_" class="st1" d="M-60-140h55v-30l-10-10h-65l-10,10L-60-140z
		"/>
	<path id="sD2-11_00000128452135352505147910000007387309289328883637_" class="st1" d="M5-140h55l30-30l-10-10H15L5-170V-140z"/>
	<path id="sE-12_00000081634740986176691730000014390518148526219439_" class="st1" d="M-100-160l-10,10v120l10,20l30-20v-100
		L-100-160z"/>
	<path id="sG1-11_00000049202568981843795910000005299253568767449757_" class="st1" d="M-100,0l40,20h55v-40h-55L-100,0z"/>
	<path id="sG2-12_00000115489155329350147730000005620868471812977322_" class="st1" d="M100,0L60-20H5v40h55L100,0z"/>
</symbol>
<symbol  id="U0041" viewBox="-110 -170 220 340">
	<path id="sA1-10_00000078765926490743084970000017630098754242764675_" class="st1" d="M-80,170l-10-10l30-30h55v30l-10,10H-80z"/>
	<path id="sA2-10_00000008148881622322670240000004974842361639572920_" class="st1" d="M5,130h55l30,30l-10,10H15L5,160V130z"/>
	<path id="sB-10_00000062157775487404774780000006326925629325251712_" class="st1" d="M70,120l30,30l10-10V20L100,0L70,20V120z"/>
	<path id="sC-10_00000062909228540550794140000013470227394255511936_" class="st1" d="M70-40l30,20l10-20v-120l-10-10l-30,30V-40z"
		/>
	<path id="sE-9_00000150825137683368677300000016844762037098879410_" class="st1" d="M-100-170l-10,10v120l10,20l30-20v-100
		L-100-170z"/>
	<path id="sF-9_00000174586013795309578560000004585277969049441464_" class="st1" d="M-100,0l-10,20v120l10,10l30-30V20L-100,0z"/>
	<path id="sG1-9_00000049914831977495205590000014119290704097911981_" class="st1" d="M-100-10l40,20h55v-40h-55L-100-10z"/>
	<path id="sG2-10_00000080189754790766195520000000372966315588268207_" class="st1" d="M100-10L60-30H5v40h55L100-10z"/>
</symbol>
<symbol  id="U0042" viewBox="-100 -180 200 360">
	<path id="sA1-9_00000147939961446718808020000014843282329051571097_" class="st1" d="M-90,180l-10-10l30-30h55v30l-10,10H-90z"/>
	<path id="sA2-9_00000139282876999418707480000003634147866775350959_" class="st1" d="M-5,140h55l30,30l-10,10H5l-10-10V140z"/>
	<path id="sB-9_00000047739338571357490040000008081238173164727936_" class="st1" d="M60,130l30,30l10-10V30L90,10L60,30V130z"/>
	<path id="sC-9_00000080189445761932955220000014909499902028311990_" class="st1" d="M60-30l30,20l10-20v-120l-10-10l-30,30V-30z"
		/>
	<path id="sD1-9_00000083070267526600133180000013420423591694883974_" class="st1" d="M-70-140h55v-30l-10-10h-65l-10,10L-70-140z"
		/>
	<path id="sD2-9_00000005979901329244826960000000131767045631047102_" class="st1" d="M-5-140h55l30-30l-10-10H5l-10,10V-140z"/>
	<path id="sG2-9_00000093870217633886049780000000113542235510028972_" class="st1" d="M90,0L50-20H-5v40h55L90,0z"/>
	<path id="sI-9_00000074404552873542123790000000580303093928999570_" class="st1" d="M5,130v-30l-15-70l-15,70v30H5z"/>
	<path id="sL-9_00000087393494766215350390000014611500054671573898_" class="st1" d="M-10-30l15-70v-30h-30v30L-10-30z"/>
</symbol>
<symbol  id="U0043" viewBox="-100 -180 200 360">
	<path id="sA1-12_00000013872078434692907640000014250082123986032779_" class="st1" d="M-70,180l-10-10l30-30H5v30l-10,10H-70z"/>
	<path id="sA2-12_00000011731930169314501310000018003556792658633104_" class="st1" d="M15,140h55l30,30l-10,10H25l-10-10V140z"/>
	<path id="sD1-10_00000163063607423368161390000013463653658701140401_" class="st1" d="M-50-140H5v-30l-10-10h-65l-10,10L-50-140z"
		/>
	<path id="sD2-10_00000059308998724461138690000013998424298705710516_" class="st1" d="M15-140h55l30-30l-10-10H25l-10,10V-140z"/>
	<path id="sE-11_00000091015723420272951450000007031589027959335313_" class="st1" d="M-90-160l-10,10v120l10,20l30-20v-100
		L-90-160z"/>
	<path id="sF-11_00000047054387858840838020000007961529935982795649_" class="st1" d="M-90,10l-10,20v120l10,10l30-30V30L-90,10z"
		/>
</symbol>
<symbol  id="U0050" viewBox="-110 -170 220 340">
	<path id="sA1-11_00000111167772295079557800000001471755367073704368_" class="st1" d="M-80,170l-10-10l30-30h55v30l-10,10H-80z"/>
	<path id="sA2-11_00000160167299774184469150000001796315119674176441_" class="st1" d="M5,130h55l30,30l-10,10H15L5,160V130z"/>
	<path id="sB-11_00000109744341873949643530000004856371433662807465_" class="st1" d="M70,120l30,30l10-10V20L100,0L70,20V120z"/>
	<path id="sE-10_00000060738431954950588440000003381631653857030551_" class="st1" d="M-100-170l-10,10v120l10,20l30-20v-100
		L-100-170z"/>
	<path id="sF-10_00000016790549049164996380000002561606170258526138_" class="st1" d="M-100,0l-10,20v120l10,10l30-30V20L-100,0z"
		/>
	<path id="sG1-10_00000146492009767340653580000002064974926257828753_" class="st1" d="M-100-10l40,20h55v-40h-55L-100-10z"/>
	<path id="sG2-11_00000016763200952599845570000013668281430273421468_" class="st1" d="M100-10L60-30H5v40h55L100-10z"/>
</symbol>
<g id="Layer_2_00000164479235883240272500000011727456876078869944_">
	<g id="Layer_1-2">
		
			<use xlink:href="#All"  width="222" height="360" x="-111" y="-180" transform="matrix(1 0 0 -1 111 180)" style="overflow:visible;"/>
		
			<use xlink:href="#All"  width="222" height="360" x="-111" y="-180" transform="matrix(1 0 0 -1 397.33 180)" style="overflow:visible;"/>
		
			<use xlink:href="#All"  width="222" height="360" x="-111" y="-180" transform="matrix(1 0 0 -1 683.67 180)" style="overflow:visible;"/>
		
			<use xlink:href="#All"  width="222" height="360" x="-111" y="-180" transform="matrix(1 0 0 -1 970 180)" style="overflow:visible;"/>
		
			<use xlink:href="#All"  width="222" height="360" x="-111" y="-180" transform="matrix(1 0 0 -1 111 677)" style="overflow:visible;"/>
		
			<use xlink:href="#All"  width="222" height="360" x="-111" y="-180" transform="matrix(1 0 0 -1 691.67 677)" style="overflow:visible;"/>
		
			<use xlink:href="#All"  width="222" height="360" x="-111" y="-180" transform="matrix(1 0 0 -1 982 677)" style="overflow:visible;"/>
		<path id="sA1-8" class="st0" d="M385.3,498l10,10v30h-55l-30-30l10-10H385.3z"/>
		<path id="sA2-8" class="st0" d="M405.3,508l10-10h65l10,10l-30,30h-55V508z"/>
		<path id="sB-8" class="st0" d="M470.3,648l30,20l10-20V528l-10-10l-30,30V648z"/>
		<path id="sC-8" class="st0" d="M470.3,808l30,30l10-10V708l-10-20l-30,20V808z"/>
		<path id="sD1-8" class="st0" d="M310.3,848l10,10h65l10-10v-30h-55L310.3,848z"/>
		<path id="sD2-8" class="st0" d="M405.3,848l10,10h65l10-10l-30-30h-55V848z"/>
		<path id="sE-8" class="st0" d="M330.3,808V708l-30-20l-10,20v120l10,10L330.3,808z"/>
		<path id="sF-8" class="st0" d="M300.3,668l30-20V548l-30-30l-10,10v120L300.3,668z"/>
		<path id="sG1-8" class="st0" d="M340.3,698h55v-40h-55l-40,20L340.3,698z"/>
		<path id="sG2-8" class="st0" d="M460.3,658h-55v40h55l40-20L460.3,658z"/>
		<path id="sH-8" class="st0" d="M340.3,598l35,50h15l-20-70l-15-30h-15V598z"/>
		<path id="sI-8" class="st0" d="M385.3,548v30l15,70l15-70v-30H385.3z"/>
		<path id="sJ-8" class="st0" d="M410.3,648h15l35-50v-50h-15l-15,30L410.3,648z"/>
		<path id="sK-8" class="st0" d="M340.3,758v50h15l15-30l20-70h-15L340.3,758z"/>
		<path id="sL-8" class="st0" d="M385.3,778v30h30v-30l-15-70L385.3,778z"/>
		<path id="sM-8" class="st0" d="M430.3,778l15,30h15v-50l-35-50h-15L430.3,778z"/>
		
			<ellipse id="sDP-8" transform="matrix(0.1602 -0.9871 0.9871 0.1602 -412.6651 1210.9702)" class="st0" cx="505.3" cy="848" rx="7" ry="7"/>
		
			<use xlink:href="#U0042"  width="200" height="360" x="-100" y="-180" transform="matrix(1 0 0 -1 120 180)" style="overflow:visible;"/>
		
			<use xlink:href="#U0041"  width="220" height="340" x="-110" y="-170" transform="matrix(1 0 0 -1 396.33 170)" style="overflow:visible;"/>
		
			<use xlink:href="#U0050"  width="220" height="340" x="-110" y="-170" transform="matrix(1 0 0 -1 682.67 170)" style="overflow:visible;"/>
		
			<use xlink:href="#U0043"  width="200" height="360" x="-100" y="-180" transform="matrix(1 0 0 -1 959 180)" style="overflow:visible;"/>
		
			<use xlink:href="#U0032"  width="220" height="360" x="-110" y="-180" transform="matrix(1 0 0 -1 110 677)" style="overflow:visible;"/>
		
			<use xlink:href="#U0032"  width="220" height="360" x="-110" y="-180" transform="matrix(1 0 0 -1 690.67 677)" style="overflow:visible;"/>
		
			<use xlink:href="#U0032"  width="220" height="360" x="-110" y="-180" transform="matrix(1 0 0 -1 981 677)" style="overflow:visible;"/>
		
			<use xlink:href="#U0030"  width="220" height="360" x="-110" y="-180" transform="matrix(1 0 0 -1 400.33 678)" style="overflow:visible;"/>
	</g>
</g>
</svg>
